<svg width="147" height="193" viewBox="0 0 147 193" fill="none" xmlns="http://www.w3.org/2000/svg">
<path d="M134.467 193L22.0332 182.936L34.4243 15.6104L146.858 25.6739L134.467 193Z" fill="url(#paint0_linear)"/>
<path d="M133.119 190.611L23.7144 180.816L35.7725 17.999L145.177 27.7919L133.119 190.611Z" fill="#84AD7C"/>
<path d="M139.586 164.865L28.8054 188.26L0 23.3956L110.78 0L139.586 164.865Z" fill="url(#paint1_linear)"/>
<path d="M137.705 162.96L29.9101 185.726L1.88086 25.3006L109.676 2.53662L137.705 162.96Z" fill="#E0E0E0"/>
<path d="M126.196 12.4521H13.3901V180.332H126.196V12.4521Z" fill="url(#paint2_linear)"/>
<path d="M124.678 14.7129H14.9102V178.069H124.678V14.7129Z" fill="white"/>
<path d="M103.082 37.6727C102.527 36.4895 102.272 35.1651 102.345 33.8378C102.424 32.5071 102.974 31.262 103.879 30.3663C104.887 29.4213 106.254 29.088 107.574 28.9727C108.895 28.8574 110.233 28.9275 111.533 28.6443C112.609 28.4035 113.63 27.931 114.537 27.2545C115.444 26.5779 116.218 25.7109 116.815 24.7041C116.897 25.8195 116.98 26.9599 116.785 28.0528C116.59 29.1456 116.075 30.2334 115.207 30.8099C116.259 30.276 116.144 31.5293 115.917 32.2787C116.438 32.9705 117.703 33.0858 117.768 33.9806C117.832 34.8755 117.82 35.8003 117.503 36.625C117.187 37.4496 117.526 38.9059 116.714 38.9686" fill="white"/>
<path d="M103.082 37.6727C102.527 36.4895 102.272 35.1651 102.345 33.8378C102.424 32.5071 102.974 31.262 103.879 30.3663C104.887 29.4213 106.254 29.088 107.574 28.9727C108.895 28.8574 110.233 28.9275 111.533 28.6443C112.609 28.4035 113.63 27.931 114.537 27.2545C115.444 26.5779 116.218 25.7109 116.815 24.7041C116.897 25.8195 116.98 26.9599 116.785 28.0528C116.59 29.1456 116.075 30.2334 115.207 30.8099C116.259 30.276 116.144 31.5293 115.917 32.2787C116.438 32.9705 117.703 33.0858 117.768 33.9806C117.832 34.8755 117.82 35.8003 117.503 36.625C117.187 37.4496 117.526 38.9059 116.714 38.9686" stroke="white" stroke-miterlimit="10"/>
<path d="M115.593 30.6445C115.593 30.6445 120.415 31.1082 116.984 38.9887Z" fill="white"/>
<path d="M40.1035 143.873H25.1934V160.265H40.1035V143.873Z" fill="url(#paint3_linear)"/>
<path d="M77.1602 117H67V77.8359L54.8711 81.5977V73.3359L76.0703 65.7422H77.1602V117Z" fill="#84AD7C"/>
<defs>
<linearGradient id="paint0_linear" x1="78.2202" y1="187.985" x2="93.0623" y2="20.8055" gradientUnits="userSpaceOnUse">
<stop stop-color="#808080" stop-opacity="0.25"/>
<stop offset="0.54" stop-color="#808080" stop-opacity="0.12"/>
<stop offset="1" stop-color="#808080" stop-opacity="0.1"/>
</linearGradient>
<linearGradient id="paint1_linear" x1="119906" y1="127682" x2="94108.6" y2="4600.06" gradientUnits="userSpaceOnUse">
<stop stop-color="#808080" stop-opacity="0.25"/>
<stop offset="0.54" stop-color="#808080" stop-opacity="0.12"/>
<stop offset="1" stop-color="#808080" stop-opacity="0.1"/>
</linearGradient>
<linearGradient id="paint2_linear" x1="58438.9" y1="120795" x2="58438.9" y2="8352.72" gradientUnits="userSpaceOnUse">
<stop stop-color="#808080" stop-opacity="0.25"/>
<stop offset="0.54" stop-color="#808080" stop-opacity="0.12"/>
<stop offset="1" stop-color="#808080" stop-opacity="0.1"/>
</linearGradient>
<linearGradient id="paint3_linear" x1="5335.75" y1="10625.2" x2="5335.75" y2="9553.14" gradientUnits="userSpaceOnUse">
<stop stop-color="#808080" stop-opacity="0.25"/>
<stop offset="0.54" stop-color="#808080" stop-opacity="0.12"/>
<stop offset="1" stop-color="#808080" stop-opacity="0.1"/>
</linearGradient>
</defs>
</svg>
