<svg width="147" height="193" viewBox="0 0 147 193" fill="none" xmlns="http://www.w3.org/2000/svg">
<path d="M134.467 193L22.0332 182.936L34.4243 15.6104L146.858 25.6739L134.467 193Z" fill="url(#paint0_linear)"/>
<path d="M133.119 190.611L23.7144 180.816L35.7725 17.999L145.177 27.7919L133.119 190.611Z" fill="#84AD7C"/>
<path d="M139.586 164.865L28.8054 188.26L0 23.3956L110.78 0L139.586 164.865Z" fill="url(#paint1_linear)"/>
<path d="M137.705 162.96L29.9101 185.726L1.88086 25.3006L109.676 2.53662L137.705 162.96Z" fill="#E0E0E0"/>
<path d="M126.196 12.4521H13.3901V180.332H126.196V12.4521Z" fill="url(#paint2_linear)"/>
<path d="M124.678 14.7129H14.9102V178.069H124.678V14.7129Z" fill="white"/>
<path d="M40.1035 143.873H25.1934V160.265H40.1035V143.873Z" fill="url(#paint3_linear)"/>
<path d="M82.5391 97.7344H88.3398V105.926H82.5391V117H72.3789V105.926H51.3906L50.9336 99.5273L72.2734 65.8125H82.5391V97.7344ZM61.0586 97.7344H72.3789V79.6641L71.7109 80.8242L61.0586 97.7344Z" fill="#84AD7C"/>
<defs>
<linearGradient id="paint0_linear" x1="78.2202" y1="187.985" x2="93.0623" y2="20.8055" gradientUnits="userSpaceOnUse">
<stop stop-color="#808080" stop-opacity="0.25"/>
<stop offset="0.54" stop-color="#808080" stop-opacity="0.12"/>
<stop offset="1" stop-color="#808080" stop-opacity="0.1"/>
</linearGradient>
<linearGradient id="paint1_linear" x1="119906" y1="127682" x2="94108.6" y2="4600.06" gradientUnits="userSpaceOnUse">
<stop stop-color="#808080" stop-opacity="0.25"/>
<stop offset="0.54" stop-color="#808080" stop-opacity="0.12"/>
<stop offset="1" stop-color="#808080" stop-opacity="0.1"/>
</linearGradient>
<linearGradient id="paint2_linear" x1="58438.9" y1="120795" x2="58438.9" y2="8352.72" gradientUnits="userSpaceOnUse">
<stop stop-color="#808080" stop-opacity="0.25"/>
<stop offset="0.54" stop-color="#808080" stop-opacity="0.12"/>
<stop offset="1" stop-color="#808080" stop-opacity="0.1"/>
</linearGradient>
<linearGradient id="paint3_linear" x1="5335.75" y1="10625.2" x2="5335.75" y2="9553.14" gradientUnits="userSpaceOnUse">
<stop stop-color="#808080" stop-opacity="0.25"/>
<stop offset="0.54" stop-color="#808080" stop-opacity="0.12"/>
<stop offset="1" stop-color="#808080" stop-opacity="0.1"/>
</linearGradient>
</defs>
</svg>
