<svg width="147" height="193" viewBox="0 0 147 193" fill="none" xmlns="http://www.w3.org/2000/svg">
<path d="M134.467 193L22.0332 182.936L34.4243 15.6104L146.858 25.6739L134.467 193Z" fill="url(#paint0_linear)"/>
<path d="M133.119 190.611L23.7144 180.816L35.7725 17.999L145.177 27.7919L133.119 190.611Z" fill="#84AD7C"/>
<path d="M139.586 164.865L28.8054 188.26L0 23.3956L110.78 0L139.586 164.865Z" fill="url(#paint1_linear)"/>
<path d="M137.705 162.96L29.9101 185.726L1.88086 25.3006L109.676 2.53662L137.705 162.96Z" fill="#E0E0E0"/>
<path d="M126.196 12.4521H13.3901V180.332H126.196V12.4521Z" fill="url(#paint2_linear)"/>
<path d="M124.678 14.7129H14.9102V178.069H124.678V14.7129Z" fill="white"/>
<path d="M103.082 37.6727C102.527 36.4895 102.272 35.1651 102.345 33.8378C102.424 32.5071 102.974 31.262 103.879 30.3663C104.887 29.4213 106.254 29.088 107.574 28.9727C108.895 28.8574 110.233 28.9275 111.533 28.6443C112.609 28.4035 113.63 27.931 114.537 27.2545C115.444 26.5779 116.218 25.7109 116.815 24.7041C116.897 25.8195 116.98 26.9599 116.785 28.0528C116.59 29.1456 116.075 30.2334 115.207 30.8099C116.259 30.276 116.144 31.5293 115.917 32.2787C116.438 32.9705 117.703 33.0858 117.768 33.9806C117.832 34.8755 117.82 35.8003 117.503 36.625C117.187 37.4496 117.526 38.9059 116.714 38.9686" fill="white"/>
<path d="M103.082 37.6727C102.527 36.4895 102.272 35.1651 102.345 33.8378C102.424 32.5071 102.974 31.262 103.879 30.3663C104.887 29.4213 106.254 29.088 107.574 28.9727C108.895 28.8574 110.233 28.9275 111.533 28.6443C112.609 28.4035 113.63 27.931 114.537 27.2545C115.444 26.5779 116.218 25.7109 116.815 24.7041C116.897 25.8195 116.98 26.9599 116.785 28.0528C116.59 29.1456 116.075 30.2334 115.207 30.8099C116.259 30.276 116.144 31.5293 115.917 32.2787C116.438 32.9705 117.703 33.0858 117.768 33.9806C117.832 34.8755 117.82 35.8003 117.503 36.625C117.187 37.4496 117.526 38.9059 116.714 38.9686" stroke="white" stroke-miterlimit="10"/>
<path d="M115.593 30.6445C115.593 30.6445 120.415 31.1082 116.984 38.9887Z" fill="white"/>
<path d="M40.1035 143.873H25.1934V160.265H40.1035V143.873Z" fill="url(#paint3_linear)"/>
<path d="M62.8164 86.9062H68.2305C70.8086 86.9062 72.7188 86.2617 73.9609 84.9727C75.2031 83.6836 75.8242 81.9727 75.8242 79.8398C75.8242 77.7773 75.2031 76.1719 73.9609 75.0234C72.7422 73.875 71.0547 73.3008 68.8984 73.3008C66.9531 73.3008 65.3242 73.8398 64.0117 74.918C62.6992 75.9727 62.043 77.3555 62.043 79.0664H51.8828C51.8828 76.3945 52.5977 74.0039 54.0273 71.8945C55.4805 69.7617 57.4961 68.0977 60.0742 66.9023C62.6758 65.707 65.5352 65.1094 68.6523 65.1094C74.0664 65.1094 78.3086 66.4102 81.3789 69.0117C84.4492 71.5898 85.9844 75.1523 85.9844 79.6992C85.9844 82.043 85.2695 84.1992 83.8398 86.168C82.4102 88.1367 80.5352 89.6484 78.2148 90.7031C81.0977 91.7344 83.2422 93.2812 84.6484 95.3438C86.0781 97.4062 86.793 99.8438 86.793 102.656C86.793 107.203 85.1289 110.848 81.8008 113.59C78.4961 116.332 74.1133 117.703 68.6523 117.703C63.543 117.703 59.3594 116.355 56.1016 113.66C52.8672 110.965 51.25 107.402 51.25 102.973H61.4102C61.4102 104.895 62.125 106.465 63.5547 107.684C65.0078 108.902 66.7891 109.512 68.8984 109.512C71.3125 109.512 73.1992 108.879 74.5586 107.613C75.9414 106.324 76.6328 104.625 76.6328 102.516C76.6328 97.4062 73.8203 94.8516 68.1953 94.8516H62.8164V86.9062Z" fill="#84AD7C"/>
<defs>
<linearGradient id="paint0_linear" x1="78.2202" y1="187.985" x2="93.0623" y2="20.8055" gradientUnits="userSpaceOnUse">
<stop stop-color="#808080" stop-opacity="0.25"/>
<stop offset="0.54" stop-color="#808080" stop-opacity="0.12"/>
<stop offset="1" stop-color="#808080" stop-opacity="0.1"/>
</linearGradient>
<linearGradient id="paint1_linear" x1="119906" y1="127682" x2="94108.6" y2="4600.06" gradientUnits="userSpaceOnUse">
<stop stop-color="#808080" stop-opacity="0.25"/>
<stop offset="0.54" stop-color="#808080" stop-opacity="0.12"/>
<stop offset="1" stop-color="#808080" stop-opacity="0.1"/>
</linearGradient>
<linearGradient id="paint2_linear" x1="58438.9" y1="120795" x2="58438.9" y2="8352.72" gradientUnits="userSpaceOnUse">
<stop stop-color="#808080" stop-opacity="0.25"/>
<stop offset="0.54" stop-color="#808080" stop-opacity="0.12"/>
<stop offset="1" stop-color="#808080" stop-opacity="0.1"/>
</linearGradient>
<linearGradient id="paint3_linear" x1="5335.75" y1="10625.2" x2="5335.75" y2="9553.14" gradientUnits="userSpaceOnUse">
<stop stop-color="#808080" stop-opacity="0.25"/>
<stop offset="0.54" stop-color="#808080" stop-opacity="0.12"/>
<stop offset="1" stop-color="#808080" stop-opacity="0.1"/>
</linearGradient>
</defs>
</svg>
