<svg width="147" height="193" viewBox="0 0 147 193" fill="none" xmlns="http://www.w3.org/2000/svg">
<path d="M134.467 193L22.0332 182.936L34.4243 15.6104L146.858 25.6739L134.467 193Z" fill="url(#paint0_linear)"/>
<path d="M133.119 190.611L23.7144 180.816L35.7725 17.999L145.177 27.7919L133.119 190.611Z" fill="#84AD7C"/>
<path d="M139.586 164.865L28.8054 188.26L0 23.3956L110.78 0L139.586 164.865Z" fill="url(#paint1_linear)"/>
<path d="M137.705 162.96L29.9101 185.726L1.88086 25.3006L109.676 2.53662L137.705 162.96Z" fill="#E0E0E0"/>
<path d="M126.196 12.4521H13.3901V180.332H126.196V12.4521Z" fill="url(#paint2_linear)"/>
<path d="M124.678 14.7129H14.9102V178.069H124.678V14.7129Z" fill="white"/>
<path d="M40.1035 143.873H25.1934V160.265H40.1035V143.873Z" fill="url(#paint3_linear)"/>
<path d="M87.5664 117H52.4805V110.039L69.0391 92.3906C71.3125 89.9062 72.9883 87.7383 74.0664 85.8867C75.168 84.0352 75.7188 82.2773 75.7188 80.6133C75.7188 78.3398 75.1445 76.5586 73.9961 75.2695C72.8477 73.957 71.207 73.3008 69.0742 73.3008C66.7773 73.3008 64.9609 74.0977 63.625 75.6914C62.3125 77.2617 61.6562 79.3359 61.6562 81.9141H51.4609C51.4609 78.7969 52.1992 75.9492 53.6758 73.3711C55.1758 70.793 57.2852 68.7773 60.0039 67.3242C62.7227 65.8477 65.8047 65.1094 69.25 65.1094C74.5234 65.1094 78.6133 66.375 81.5195 68.9062C84.4492 71.4375 85.9141 75.0117 85.9141 79.6289C85.9141 82.1602 85.2578 84.7383 83.9453 87.3633C82.6328 89.9883 80.3828 93.0469 77.1953 96.5391L65.5586 108.809H87.5664V117Z" fill="#84AD7C"/>
<defs>
<linearGradient id="paint0_linear" x1="78.2202" y1="187.985" x2="93.0623" y2="20.8055" gradientUnits="userSpaceOnUse">
<stop stop-color="#808080" stop-opacity="0.25"/>
<stop offset="0.54" stop-color="#808080" stop-opacity="0.12"/>
<stop offset="1" stop-color="#808080" stop-opacity="0.1"/>
</linearGradient>
<linearGradient id="paint1_linear" x1="119906" y1="127682" x2="94108.6" y2="4600.06" gradientUnits="userSpaceOnUse">
<stop stop-color="#808080" stop-opacity="0.25"/>
<stop offset="0.54" stop-color="#808080" stop-opacity="0.12"/>
<stop offset="1" stop-color="#808080" stop-opacity="0.1"/>
</linearGradient>
<linearGradient id="paint2_linear" x1="58438.9" y1="120795" x2="58438.9" y2="8352.72" gradientUnits="userSpaceOnUse">
<stop stop-color="#808080" stop-opacity="0.25"/>
<stop offset="0.54" stop-color="#808080" stop-opacity="0.12"/>
<stop offset="1" stop-color="#808080" stop-opacity="0.1"/>
</linearGradient>
<linearGradient id="paint3_linear" x1="5335.75" y1="10625.2" x2="5335.75" y2="9553.14" gradientUnits="userSpaceOnUse">
<stop stop-color="#808080" stop-opacity="0.25"/>
<stop offset="0.54" stop-color="#808080" stop-opacity="0.12"/>
<stop offset="1" stop-color="#808080" stop-opacity="0.1"/>
</linearGradient>
</defs>
</svg>
