<svg width="62" height="55" viewBox="0 0 62 55" fill="none" xmlns="http://www.w3.org/2000/svg">
<path d="M14.1818 10H59L53.7273 31H19.4545L11.5455 3H1L14.1818 10ZM19.4545 31L22.0909 40.3333H56.3636L19.4545 31ZM51.0909 52C50.3917 52 49.7211 51.7542 49.2267 51.3166C48.7323 50.879 48.4545 50.2855 48.4545 49.6667C48.4545 49.0478 48.7323 48.4543 49.2267 48.0167C49.7211 47.5792 50.3917 47.3333 51.0909 47.3333C51.7901 47.3333 52.4607 47.5792 52.9551 48.0167C53.4495 48.4543 53.7273 49.0478 53.7273 49.6667C53.7273 50.2855 53.4495 50.879 52.9551 51.3166C52.4607 51.7542 51.7901 52 51.0909 52ZM24.7273 52C24.0281 52 23.3575 51.7542 22.8631 51.3166C22.3687 50.879 22.0909 50.2855 22.0909 49.6667C22.0909 49.0478 22.3687 48.4543 22.8631 48.0167C23.3575 47.5792 24.0281 47.3333 24.7273 47.3333C25.4265 47.3333 26.097 47.5792 26.5915 48.0167C27.0859 48.4543 27.3636 49.0478 27.3636 49.6667C27.3636 50.2855 27.0859 50.879 26.5915 51.3166C26.097 51.7542 25.4265 52 24.7273 52Z" stroke="#84AD7C" stroke-width="4.16667"/>
</svg>
